<svg width="46" height="49" viewBox="0 0 46 49" fill="none" xmlns="http://www.w3.org/2000/svg">
<path d="M21.6188 0.315659C22.7069 0.315659 23.7557 0.729694 24.5578 1.47667L28.0268 4.70785C28.2862 4.94831 28.6241 5.08205 28.9747 5.08205H42.3108C43.8603 5.08205 45.1152 6.35546 45.1152 7.92766V35.3878C45.1152 39.2777 42.008 42.4307 38.1744 42.4307H33.0985C32.5699 42.4307 32.0539 42.6042 31.6304 42.9258L24.848 48.0621C23.2299 49.2886 20.9261 48.1162 20.9261 46.0673V42.7864C20.9261 42.59 20.7691 42.4307 20.5756 42.4307H7.25624C3.42267 42.4307 0.31543 39.2777 0.31543 35.3878V18.741C0.31543 15.1356 2.98519 12.1633 6.42755 11.7479C6.41914 11.6853 6.41493 11.6213 6.41493 11.5558V2.87671C6.41493 1.46244 7.54509 0.315659 8.93886 0.315659H21.6188ZM7.25624 13.8323C4.58508 13.8323 2.41871 16.0305 2.41871 18.741V35.3878C2.41871 38.0982 4.58508 40.2964 7.25624 40.2964H20.577C21.9315 40.2964 23.0308 41.4105 23.0308 42.7864V46.0673C23.0308 46.3604 23.3603 46.5269 23.5903 46.3519L30.3726 41.2156C31.1607 40.6194 32.1156 40.2964 33.0985 40.2964H38.1744C40.8456 40.2964 43.0119 38.0982 43.0119 35.3878V18.741C43.0119 16.0718 40.9129 13.9006 38.2992 13.8337H38.1744L7.25624 13.8323Z" fill="white" stroke="white" stroke-width="0.631313"/>
<path d="M6.62598 31.1436V8.14369L43.5385 9.74124L44.3272 33.7044H9.18676C7.77248 33.7044 6.62598 32.5579 6.62598 31.1436Z" fill="white" fill-opacity="0.4"/>
</svg>
