<svg width="80" height="80" viewBox="0 0 80 80" fill="none" xmlns="http://www.w3.org/2000/svg">
<path d="M36.6292 9.84631C37.9893 9.84631 39.3004 10.3639 40.3029 11.2976L44.6392 15.3366C44.9635 15.6371 45.3859 15.8043 45.824 15.8043H62.4943C64.431 15.8043 65.9997 17.3961 65.9997 19.3613V53.6865C65.9997 58.5489 62.1157 62.4901 57.3237 62.4901H50.9788C50.3181 62.4901 49.673 62.707 49.1437 63.109L40.6658 69.5294C38.6431 71.0625 35.7634 69.597 35.7634 67.0359V62.9347C35.7634 62.6893 35.5671 62.4901 35.3252 62.4901H18.676C13.884 62.4901 10 58.5489 10 53.6865V32.878C10 28.3712 13.3372 24.6559 17.6402 24.1366C17.6296 24.0583 17.6244 23.9783 17.6244 23.8965V13.0476C17.6244 11.2798 19.0371 9.84631 20.7793 9.84631H36.6292ZM18.676 26.7421C15.3371 26.7421 12.6291 29.4899 12.6291 32.878V53.6865C12.6291 57.0745 15.3371 59.8223 18.676 59.8223H35.3269C37.0201 59.8223 38.3942 61.2149 38.3942 62.9347V67.0359C38.3942 67.4023 38.8061 67.6104 39.0936 67.3916L47.5715 60.9712C48.5566 60.226 49.7502 59.8223 50.9788 59.8223H57.3237C60.6627 59.8223 63.3706 57.0745 63.3706 53.6865V32.878C63.3706 29.5415 60.7468 26.8275 57.4797 26.7439H57.3237L18.676 26.7421Z" fill="white" stroke="white" stroke-width="0.789141"/>
<path d="M17.8877 48.3813V19.6313L64.0283 21.6283L65.0142 51.5822H21.0887C19.3208 51.5822 17.8877 50.1491 17.8877 48.3813Z" fill="white" fill-opacity="0.4"/>
</svg>
