<svg width="28" height="28" viewBox="0 0 28 28" fill="none" xmlns="http://www.w3.org/2000/svg">
<mask id="mask0_2521_4053" style="mask-type:alpha" maskUnits="userSpaceOnUse" x="0" y="0" width="28" height="28">
<rect width="28" height="28" fill="#D9D9D9"/>
</mask>
<g mask="url(#mask0_2521_4053)">
<path d="M6.19303 22.1667H21.8083C21.9131 22.1667 21.9991 22.133 22.0664 22.0658C22.1337 21.9985 22.1673 21.9124 22.1673 21.8076V11.3391L16.6615 5.83334H6.19303C6.08822 5.83334 6.00218 5.86698 5.9349 5.93426C5.86762 6.00154 5.83398 6.08758 5.83398 6.19239V21.8076C5.83398 21.9124 5.86762 21.9985 5.9349 22.0658C6.00218 22.133 6.08822 22.1667 6.19303 22.1667ZM6.19303 23.9167C5.61125 23.9167 5.11425 23.7107 4.70203 23.2986C4.29 22.8864 4.08398 22.3894 4.08398 21.8076V6.19239C4.08398 5.61061 4.29 5.11361 4.70203 4.70139C5.11425 4.28936 5.61125 4.08334 6.19303 4.08334H17.3773L23.9173 10.6234V21.8076C23.9173 22.3894 23.7113 22.8864 23.2993 23.2986C22.8871 23.7107 22.3901 23.9167 21.8083 23.9167H6.19303ZM8.45898 19.25H19.5423V17.5H8.45898V19.25ZM8.45898 14.875H19.5423V13.125H8.45898V14.875ZM8.45898 10.5H15.8851V8.75001H8.45898V10.5Z" fill="white"/>
</g>
</svg>
