<svg width="60" height="60" viewBox="0 0 60 60" fill="none" xmlns="http://www.w3.org/2000/svg">
<rect width="60" height="60" rx="30" fill="#1F69FF"/>
<mask id="mask0_2521_3845" style="mask-type:alpha" maskUnits="userSpaceOnUse" x="16" y="16" width="28" height="28">
<rect x="16" y="16" width="28" height="28" fill="#D9D9D9"/>
</mask>
<g mask="url(#mask0_2521_3845)">
<path d="M30 31.9256C29.1401 31.9256 28.4123 31.6206 27.8166 31.0106C27.2209 30.4007 26.9231 29.6554 26.9231 28.7749V21.2133C26.9231 20.3328 27.2209 19.5875 27.8166 18.9775C28.4123 18.3676 29.1401 18.0626 30 18.0626C30.8599 18.0626 31.5877 18.3676 32.1834 18.9775C32.7791 19.5875 33.0769 20.3328 33.0769 21.2133V28.7749C33.0769 29.6554 32.7791 30.4007 32.1834 31.0106C31.5877 31.6206 30.8599 31.9256 30 31.9256ZM29.0769 41.0626V36.9135C27.0462 36.6677 25.359 35.7729 24.0154 34.2291C22.6718 32.6852 22 30.8672 22 28.7749H23.8462C23.8462 30.5183 24.4462 32.0044 25.6462 33.2331C26.8462 34.4619 28.2974 35.0763 30 35.0763C31.7026 35.0763 33.1538 34.4619 34.3538 33.2331C35.5538 32.0044 36.1538 30.5183 36.1538 28.7749H38C38 30.8672 37.3282 32.6852 35.9846 34.2291C34.641 35.7729 32.9538 36.6677 30.9231 36.9135V41.0626H29.0769ZM30 30.0352C30.3487 30.0352 30.641 29.9144 30.8769 29.6729C31.1128 29.4313 31.2308 29.132 31.2308 28.7749V21.2133C31.2308 20.8562 31.1128 20.5569 30.8769 20.3153C30.641 20.0738 30.3487 19.953 30 19.953C29.6513 19.953 29.359 20.0738 29.1231 20.3153C28.8872 20.5569 28.7692 20.8562 28.7692 21.2133V28.7749C28.7692 29.132 28.8872 29.4313 29.1231 29.6729C29.359 29.9144 29.6513 30.0352 30 30.0352Z" fill="white"/>
</g>
</svg>
