<svg width="28" height="28" viewBox="0 0 28 28" fill="none" xmlns="http://www.w3.org/2000/svg">
<mask id="mask0_2521_4089" style="mask-type:alpha" maskUnits="userSpaceOnUse" x="0" y="0" width="28" height="28">
<rect width="28" height="28" fill="#D9D9D9"/>
</mask>
<g mask="url(#mask0_2521_4089)">
<path d="M7.26953 15.75C6.78828 15.75 6.37635 15.5786 6.03374 15.2358C5.69093 14.8932 5.51953 14.4812 5.51953 14C5.51953 13.5187 5.69093 13.1068 6.03374 12.7642C6.37635 12.4214 6.78828 12.25 7.26953 12.25C7.75078 12.25 8.16281 12.4214 8.50561 12.7642C8.84823 13.1068 9.01953 13.5187 9.01953 14C9.01953 14.4812 8.84823 14.8932 8.50561 15.2358C8.16281 15.5786 7.75078 15.75 7.26953 15.75ZM14.0003 15.75C13.5191 15.75 13.1071 15.5786 12.7645 15.2358C12.4217 14.8932 12.2503 14.4812 12.2503 14C12.2503 13.5187 12.4217 13.1068 12.7645 12.7642C13.1071 12.4214 13.5191 12.25 14.0003 12.25C14.4816 12.25 14.8935 12.4214 15.2361 12.7642C15.5789 13.1068 15.7503 13.5187 15.7503 14C15.7503 14.4812 15.5789 14.8932 15.2361 15.2358C14.8935 15.5786 14.4816 15.75 14.0003 15.75ZM20.7311 15.75C20.2499 15.75 19.8378 15.5786 19.495 15.2358C19.1524 14.8932 18.9811 14.4812 18.9811 14C18.9811 13.5187 19.1524 13.1068 19.495 12.7642C19.8378 12.4214 20.2499 12.25 20.7311 12.25C21.2124 12.25 21.6243 12.4214 21.9669 12.7642C22.3097 13.1068 22.4811 13.5187 22.4811 14C22.4811 14.4812 22.3097 14.8932 21.9669 15.2358C21.6243 15.5786 21.2124 15.75 20.7311 15.75Z" fill="white"/>
</g>
</svg>
