<svg width="64" height="20" viewBox="0 0 64 20" fill="none" xmlns="http://www.w3.org/2000/svg">
<path d="M51.9219 16.447H41.8704V11.061H51.9219V16.447ZM45.7926 6.01619V5.5859H40.901V3.80539H47.8506V6.32778C47.8506 7.60381 47.5524 8.0341 46.4637 8.49406C44.7487 9.2211 42.8398 9.94814 40.9756 10.6307L40.2598 9.05789C42.0792 8.34569 43.6302 7.69283 45.1513 7.02514C45.5987 6.83225 45.7926 6.5355 45.7926 6.01619ZM51.9219 10.5565H49.8639V3.46413H51.9219V5.95684H53.5922V7.84121H51.9219V10.5565ZM49.8639 14.6665V12.8415H43.9284V14.6665H49.8639Z" fill="white"/>
<path d="M39.9492 15.6891H26.9746V13.879H32.5671V11.2082H28.1826V3.8636H38.7412V5.67378H30.2406V9.39801H38.8903V11.2082H34.6549V13.879H39.9492V15.6891Z" fill="white"/>
<path d="M22.9801 16.536H17.9394C16.2243 16.536 14.9716 15.4826 14.9716 13.7317C14.9716 11.9809 16.2243 10.9274 17.9394 10.9274H22.9801C24.6951 10.9274 25.9478 11.9809 25.9478 13.7317C25.9478 15.4826 24.6951 16.536 22.9801 16.536ZM22.3835 9.17659L21.2054 10.5268C20.1465 9.75525 19.1623 9.01338 18.1482 8.2715C17.0744 9.1024 15.9559 9.93331 14.8374 10.7642L13.5996 9.41399C14.6137 8.64244 15.6576 7.84121 16.6419 7.03998C16.9402 6.78774 17.1042 6.44648 17.1042 5.95684V5.55622H14.1812V3.80539H22.0256V5.55622H19.1921V5.95684C19.1921 6.44648 19.3561 6.78774 19.6544 7.03998C20.5045 7.76702 21.4738 8.5089 22.3835 9.17659ZM25.6048 10.5713H23.5468V7.75218H21.1905V6.03102H23.5468V3.46413H25.6048V10.5713ZM22.7564 12.7079H18.1631C17.4472 12.7079 17.0297 13.0789 17.0297 13.7317C17.0297 14.3846 17.4472 14.7555 18.1631 14.7555H22.7564C23.4722 14.7555 23.8898 14.3846 23.8898 13.7317C23.8898 13.0789 23.4722 12.7079 22.7564 12.7079Z" fill="white"/>
<path d="M11.6622 16.4468H1.61063V11.0608H11.6622V16.4468ZM5.53282 6.01599V5.5857H0.64127V3.80519H7.59085V6.32758C7.59085 7.60361 7.29259 8.0339 6.20392 8.49386C4.48889 9.2209 2.58 9.94794 0.715837 10.6305L0 9.05769C1.81942 8.34549 3.3704 7.69263 4.89155 7.02494C5.33895 6.83206 5.53282 6.5353 5.53282 6.01599ZM11.6622 10.5563H9.60414V3.46393H11.6622V5.95664H13.3325V7.84101H11.6622V10.5563ZM9.60414 14.6663V12.8413H3.66866V14.6663H9.60414Z" fill="white"/>
<g clip-path="url(#clip0_2521_3925)">
<path d="M56.207 11.9608L57.8549 4.40054C57.9481 3.99083 58.0813 3.61688 58.2544 3.2787C58.4275 2.94052 58.6738 2.67063 58.9934 2.46902C59.3197 2.26091 59.7491 2.15686 60.2817 2.15686C60.6612 2.15686 60.9842 2.22189 61.2505 2.35196C61.5235 2.48203 61.7299 2.67063 61.8697 2.91776C62.0161 3.16489 62.0894 3.4608 62.0894 3.80548C62.0894 4.15016 62.0228 4.45582 61.8896 4.72246C61.7631 4.9826 61.5734 5.20047 61.3204 5.37606C61.0674 5.54515 60.7511 5.67196 60.3716 5.75651C60.7178 5.82805 61.0108 5.99388 61.2505 6.25402C61.4968 6.50765 61.62 6.87835 61.62 7.36611C61.62 7.69778 61.5667 8.0067 61.4602 8.29285C61.3537 8.579 61.1972 8.82938 60.9908 9.04399C60.7911 9.25861 60.5414 9.42444 60.2418 9.5415C59.9488 9.65857 59.6093 9.7171 59.2231 9.7171C58.8369 9.7171 58.5273 9.66182 58.2943 9.55126C58.0613 9.4342 57.8615 9.31388 57.6951 9.19032L57.0759 11.9608H56.207ZM59.1532 9.01473C59.4262 9.01473 59.6625 8.9692 59.8623 8.87816C60.062 8.78711 60.2285 8.66679 60.3616 8.51722C60.4948 8.36764 60.5947 8.19529 60.6612 8.00019C60.7278 7.80509 60.7611 7.60673 60.7611 7.40513C60.7611 7.14499 60.7145 6.91412 60.6213 6.71251C60.5281 6.51091 60.3783 6.35157 60.1719 6.23451C59.9655 6.11745 59.6892 6.05892 59.343 6.05892H59.0234L59.1632 5.40532H59.5327C59.8257 5.40532 60.0753 5.3663 60.2817 5.28826C60.4948 5.21022 60.6679 5.10291 60.8011 4.96634C60.9342 4.82327 61.0308 4.65743 61.0907 4.46883C61.1573 4.28023 61.1906 4.07862 61.1906 3.86401C61.1906 3.57786 61.1073 3.34048 60.9409 3.15188C60.7811 2.95678 60.5314 2.85923 60.1919 2.85923C59.8789 2.85923 59.6259 2.93402 59.4328 3.0836C59.2398 3.22667 59.0899 3.41853 58.9834 3.65915C58.8769 3.89328 58.7937 4.15016 58.7337 4.42981L57.8249 8.60501C57.9847 8.72858 58.1845 8.82938 58.4241 8.90742C58.6638 8.97896 58.9069 9.01473 59.1532 9.01473Z" fill="white"/>
</g>
<defs>
<clipPath id="clip0_2521_3925">
<rect width="6.53595" height="19.6078" fill="white" transform="translate(56.207 0.196075)"/>
</clipPath>
</defs>
</svg>
